<mxfile host="app.diagrams.net" modified="2024-07-19T16:48:09.239Z" agent="Mozilla/5.0 (Windows NT 10.0; Win64; x64) AppleWebKit/537.36 (KHTML, like Gecko) Chrome/123.0.0.0 Safari/537.36 OPR/109.0.0.0" etag="13SuyTlQKhUM93rNz0hU" version="24.7.2" type="device">
  <diagram name="Page-1" id="OSqCRvJ8QhHuWR8seWzr">
    <mxGraphModel dx="1365" dy="1444" grid="1" gridSize="10" guides="1" tooltips="1" connect="1" arrows="1" fold="1" page="1" pageScale="1" pageWidth="850" pageHeight="1100" math="0" shadow="0">
      <root>
        <mxCell id="0" />
        <mxCell id="1" parent="0" />
        <mxCell id="2" value="Connect to SQLite database" style="whiteSpace=wrap;strokeWidth=2;" parent="1" vertex="1">
          <mxGeometry x="320" y="20" width="214" height="34" as="geometry" />
        </mxCell>
        <mxCell id="11" value="" style="curved=1;startArrow=none;endArrow=block;exitX=0.5;exitY=1;" parent="1" source="2" edge="1">
          <mxGeometry relative="1" as="geometry">
            <Array as="points" />
            <mxPoint x="427" y="100" as="targetPoint" />
          </mxGeometry>
        </mxCell>
        <mxCell id="N3y9E51dcy0T_wHKJ5Mz-18" value="Create Match Table     | If Not Exists          " style="whiteSpace=wrap;strokeWidth=2;" vertex="1" parent="1">
          <mxGeometry x="320" y="100" width="214" height="34" as="geometry" />
        </mxCell>
        <mxCell id="N3y9E51dcy0T_wHKJ5Mz-19" value="reate Final Table     | If Not Exists" style="whiteSpace=wrap;strokeWidth=2;" vertex="1" parent="1">
          <mxGeometry x="320" y="180" width="214" height="34" as="geometry" />
        </mxCell>
        <mxCell id="N3y9E51dcy0T_wHKJ5Mz-20" value="" style="curved=1;startArrow=none;endArrow=block;exitX=0.5;exitY=1;" edge="1" parent="1" source="N3y9E51dcy0T_wHKJ5Mz-19">
          <mxGeometry relative="1" as="geometry">
            <Array as="points" />
            <mxPoint x="427" y="260" as="targetPoint" />
          </mxGeometry>
        </mxCell>
        <mxCell id="N3y9E51dcy0T_wHKJ5Mz-21" value="" style="endArrow=classic;html=1;rounded=0;entryX=0.5;entryY=0;entryDx=0;entryDy=0;exitX=0.5;exitY=1;exitDx=0;exitDy=0;" edge="1" parent="1" source="N3y9E51dcy0T_wHKJ5Mz-18" target="N3y9E51dcy0T_wHKJ5Mz-19">
          <mxGeometry width="50" height="50" relative="1" as="geometry">
            <mxPoint x="330" y="210" as="sourcePoint" />
            <mxPoint x="380" y="160" as="targetPoint" />
          </mxGeometry>
        </mxCell>
        <mxCell id="N3y9E51dcy0T_wHKJ5Mz-22" value="Fetch JSON Data from API Endpoint           " style="whiteSpace=wrap;strokeWidth=2;" vertex="1" parent="1">
          <mxGeometry x="320" y="260" width="214" height="34" as="geometry" />
        </mxCell>
        <mxCell id="N3y9E51dcy0T_wHKJ5Mz-23" value="" style="curved=1;startArrow=none;endArrow=block;exitX=0.5;exitY=1;" edge="1" parent="1" source="N3y9E51dcy0T_wHKJ5Mz-22">
          <mxGeometry relative="1" as="geometry">
            <Array as="points" />
            <mxPoint x="427" y="340" as="targetPoint" />
          </mxGeometry>
        </mxCell>
        <mxCell id="N3y9E51dcy0T_wHKJ5Mz-24" value="Parse JSON Data to &#xa;Extract Team &amp; Player Info" style="whiteSpace=wrap;strokeWidth=2;" vertex="1" parent="1">
          <mxGeometry x="320" y="340" width="214" height="34" as="geometry" />
        </mxCell>
        <mxCell id="N3y9E51dcy0T_wHKJ5Mz-25" value="" style="curved=1;startArrow=none;endArrow=block;exitX=0.5;exitY=1;" edge="1" parent="1" source="N3y9E51dcy0T_wHKJ5Mz-24">
          <mxGeometry relative="1" as="geometry">
            <Array as="points" />
            <mxPoint x="427" y="420" as="targetPoint" />
          </mxGeometry>
        </mxCell>
        <mxCell id="N3y9E51dcy0T_wHKJ5Mz-37" value="" style="edgeStyle=orthogonalEdgeStyle;rounded=0;orthogonalLoop=1;jettySize=auto;html=1;" edge="1" parent="1" source="N3y9E51dcy0T_wHKJ5Mz-26">
          <mxGeometry relative="1" as="geometry">
            <mxPoint x="427" y="534" as="targetPoint" />
          </mxGeometry>
        </mxCell>
        <mxCell id="N3y9E51dcy0T_wHKJ5Mz-26" value="Check if Team Exists in Match Table         " style="whiteSpace=wrap;strokeWidth=2;" vertex="1" parent="1">
          <mxGeometry x="320" y="420" width="214" height="34" as="geometry" />
        </mxCell>
        <mxCell id="N3y9E51dcy0T_wHKJ5Mz-27" value="" style="curved=1;startArrow=none;endArrow=block;exitX=0.5;exitY=1;" edge="1" parent="1" source="N3y9E51dcy0T_wHKJ5Mz-26">
          <mxGeometry relative="1" as="geometry">
            <Array as="points" />
            <mxPoint x="427" y="500" as="targetPoint" />
          </mxGeometry>
        </mxCell>
        <mxCell id="N3y9E51dcy0T_wHKJ5Mz-28" value="&lt;font style=&quot;font-size: 14px;&quot;&gt;Check if Team Exists   | in Match Table&lt;/font&gt;" style="rhombus;whiteSpace=wrap;html=1;" vertex="1" parent="1">
          <mxGeometry x="342" y="500" width="170" height="170" as="geometry" />
        </mxCell>
        <mxCell id="N3y9E51dcy0T_wHKJ5Mz-31" value="" style="endArrow=classic;html=1;rounded=0;" edge="1" parent="1">
          <mxGeometry width="50" height="50" relative="1" as="geometry">
            <mxPoint x="342" y="584.5" as="sourcePoint" />
            <mxPoint x="262" y="584.5" as="targetPoint" />
          </mxGeometry>
        </mxCell>
        <mxCell id="N3y9E51dcy0T_wHKJ5Mz-32" value="" style="endArrow=classic;html=1;rounded=0;exitX=1;exitY=0.5;exitDx=0;exitDy=0;" edge="1" parent="1" source="N3y9E51dcy0T_wHKJ5Mz-28">
          <mxGeometry width="50" height="50" relative="1" as="geometry">
            <mxPoint x="592" y="584.5" as="sourcePoint" />
            <mxPoint x="600" y="585" as="targetPoint" />
          </mxGeometry>
        </mxCell>
        <mxCell id="N3y9E51dcy0T_wHKJ5Mz-33" value="YES" style="text;html=1;align=center;verticalAlign=middle;whiteSpace=wrap;rounded=0;" vertex="1" parent="1">
          <mxGeometry x="282" y="555" width="60" height="30" as="geometry" />
        </mxCell>
        <mxCell id="N3y9E51dcy0T_wHKJ5Mz-34" value="NO" style="text;html=1;align=center;verticalAlign=middle;whiteSpace=wrap;rounded=0;" vertex="1" parent="1">
          <mxGeometry x="520" y="550" width="60" height="30" as="geometry" />
        </mxCell>
        <mxCell id="N3y9E51dcy0T_wHKJ5Mz-38" value="If Exists, Update Data          " style="whiteSpace=wrap;strokeWidth=2;" vertex="1" parent="1">
          <mxGeometry x="50" y="570" width="214" height="34" as="geometry" />
        </mxCell>
        <mxCell id="N3y9E51dcy0T_wHKJ5Mz-39" value="" style="curved=1;startArrow=none;endArrow=block;exitX=0.5;exitY=1;" edge="1" parent="1" source="N3y9E51dcy0T_wHKJ5Mz-38">
          <mxGeometry relative="1" as="geometry">
            <Array as="points" />
            <mxPoint x="157" y="650" as="targetPoint" />
          </mxGeometry>
        </mxCell>
        <mxCell id="N3y9E51dcy0T_wHKJ5Mz-41" value="If Not, Insert New Data          " style="whiteSpace=wrap;strokeWidth=2;" vertex="1" parent="1">
          <mxGeometry x="600" y="570" width="214" height="34" as="geometry" />
        </mxCell>
        <mxCell id="N3y9E51dcy0T_wHKJ5Mz-43" value="" style="curved=1;endArrow=classic;html=1;rounded=0;entryX=1;entryY=0.5;entryDx=0;entryDy=0;" edge="1" parent="1" target="N3y9E51dcy0T_wHKJ5Mz-26">
          <mxGeometry width="50" height="50" relative="1" as="geometry">
            <mxPoint x="700" y="570" as="sourcePoint" />
            <mxPoint x="750" y="520" as="targetPoint" />
            <Array as="points">
              <mxPoint x="750" y="570" />
              <mxPoint x="730" y="440" />
            </Array>
          </mxGeometry>
        </mxCell>
        <mxCell id="N3y9E51dcy0T_wHKJ5Mz-44" value="Calculate Total Points and Update Match Table " style="whiteSpace=wrap;strokeWidth=2;" vertex="1" parent="1">
          <mxGeometry x="50" y="650" width="214" height="34" as="geometry" />
        </mxCell>
        <mxCell id="N3y9E51dcy0T_wHKJ5Mz-45" value="" style="curved=1;startArrow=none;endArrow=block;exitX=0.5;exitY=1;" edge="1" parent="1" source="N3y9E51dcy0T_wHKJ5Mz-44">
          <mxGeometry relative="1" as="geometry">
            <Array as="points" />
            <mxPoint x="157" y="730" as="targetPoint" />
          </mxGeometry>
        </mxCell>
        <mxCell id="N3y9E51dcy0T_wHKJ5Mz-46" value="Sum Points from All Game Tables and Update final table             " style="whiteSpace=wrap;strokeWidth=2;" vertex="1" parent="1">
          <mxGeometry x="50" y="730" width="214" height="34" as="geometry" />
        </mxCell>
        <mxCell id="N3y9E51dcy0T_wHKJ5Mz-47" value="" style="curved=1;startArrow=none;endArrow=block;exitX=0.5;exitY=1;" edge="1" parent="1" source="N3y9E51dcy0T_wHKJ5Mz-46">
          <mxGeometry relative="1" as="geometry">
            <Array as="points" />
            <mxPoint x="157" y="810" as="targetPoint" />
          </mxGeometry>
        </mxCell>
        <mxCell id="N3y9E51dcy0T_wHKJ5Mz-49" value="Wait for 2 Seconds             " style="whiteSpace=wrap;strokeWidth=2;" vertex="1" parent="1">
          <mxGeometry x="50" y="810" width="214" height="34" as="geometry" />
        </mxCell>
        <mxCell id="N3y9E51dcy0T_wHKJ5Mz-56" value="" style="endArrow=none;html=1;rounded=0;" edge="1" parent="1">
          <mxGeometry width="50" height="50" relative="1" as="geometry">
            <mxPoint x="160" y="844" as="sourcePoint" />
            <mxPoint x="160" y="900" as="targetPoint" />
          </mxGeometry>
        </mxCell>
        <mxCell id="N3y9E51dcy0T_wHKJ5Mz-57" value="" style="endArrow=none;html=1;rounded=0;" edge="1" parent="1">
          <mxGeometry width="50" height="50" relative="1" as="geometry">
            <mxPoint x="20" y="900" as="sourcePoint" />
            <mxPoint x="160" y="900" as="targetPoint" />
          </mxGeometry>
        </mxCell>
        <mxCell id="N3y9E51dcy0T_wHKJ5Mz-58" value="" style="endArrow=none;html=1;rounded=0;" edge="1" parent="1">
          <mxGeometry width="50" height="50" relative="1" as="geometry">
            <mxPoint x="20" y="900" as="sourcePoint" />
            <mxPoint x="20" y="440" as="targetPoint" />
          </mxGeometry>
        </mxCell>
        <mxCell id="N3y9E51dcy0T_wHKJ5Mz-59" value="" style="endArrow=none;html=1;rounded=0;entryX=0;entryY=0.5;entryDx=0;entryDy=0;" edge="1" parent="1" target="N3y9E51dcy0T_wHKJ5Mz-26">
          <mxGeometry width="50" height="50" relative="1" as="geometry">
            <mxPoint x="20" y="440" as="sourcePoint" />
            <mxPoint x="70" y="390" as="targetPoint" />
          </mxGeometry>
        </mxCell>
      </root>
    </mxGraphModel>
  </diagram>
</mxfile>
